<?xml version="1.0" encoding="UTF-8" standalone="no"?>
<svg
   viewBox="0 0 64 64"
   fill="currentColor"
   version="1.1"
   id="svg1"
   sodipodi:docname="turtle.svg"
   inkscape:version="1.4 (86a8ad7, 2024-10-11)"
   xmlns:inkscape="http://www.inkscape.org/namespaces/inkscape"
   xmlns:sodipodi="http://sodipodi.sourceforge.net/DTD/sodipodi-0.dtd"
   xmlns="http://www.w3.org/2000/svg"
   xmlns:svg="http://www.w3.org/2000/svg">
  <defs
     id="defs1" />
  <sodipodi:namedview
     id="namedview1"
     pagecolor="#ffffff"
     bordercolor="#000000"
     borderopacity="0.25"
     inkscape:showpageshadow="2"
     inkscape:pageopacity="0.0"
     inkscape:pagecheckerboard="0"
     inkscape:deskcolor="#d1d1d1"
     inkscape:zoom="12.609375"
     inkscape:cx="32"
     inkscape:cy="32"
     inkscape:window-width="1920"
     inkscape:window-height="1009"
     inkscape:window-x="-8"
     inkscape:window-y="-8"
     inkscape:window-maximized="1"
     inkscape:current-layer="svg1" />
  <path
     d="m 60.46739,30.307867 a 11.85,11.85 0 0 0 -9.644936,-3.365829 15.38,15.38 0 0 0 -0.707107,-4.949747 16.31,16.31 0 0 0 1.866762,-1.583919 c 0.183847,-0.183848 0.353553,-0.353554 0.537401,-0.537401 a 3,3 0 0 0 2.828427,-4.36992 C 56.373242,12.8494 56.224749,10.508877 54.810536,9.0946636 53.396322,7.6804502 51.055799,7.5319578 48.425362,8.5784758 a 3,3 0 0 0 -4.391134,2.8072132 c -0.183847,0.183848 -0.353553,0.353554 -0.537401,0.537401 a 16.31,16.31 0 0 0 -1.59099,1.873833 15.38,15.38 0 0 0 -4.949747,-0.707107 11.85,11.85 0 0 0 -3.358758,-9.6520065 12.19,12.19 0 0 0 -17.21805,0.2474874 12.52,12.52 0 0 0 -2.828427,4.2426407 1,1 0 0 0 0.247487,1.166726 v 0 a 1,1 0 0 0 1.074803,0.226274 10,10 0 0 1 10.740952,2.1001064 9.61,9.61 0 0 1 2.347594,3.90323 26.62,26.62 0 0 0 -7.092281,5.084098 26,26 0 0 0 -5.890199,8.930758 10.19,10.19 0 0 0 -13.739085,13.866364 1,1 0 0 0 0.205061,0.205061 1,1 0 0 0 0.7071068,0.296985 1,1 0 0 0 0.8838835,-0.53033 8.08,8.08 0 0 1 1.4283556,-1.937473 8.25,8.25 0 0 1 9.3338091,-1.598061 13.31,13.31 0 0 0 1.753625,4.582052 44.79,44.79 0 0 0 -2.65165,5.480078 1,1 0 0 0 1.315218,1.315218 44.79,44.79 0 0 0 5.480078,-2.65165 13.31,13.31 0 0 0 4.582052,1.753625 8.25,8.25 0 0 1 -1.598061,9.333809 8.08,8.08 0 0 1 -1.937473,1.428356 1,1 0 0 0 -0.53033,0.883883 1,1 0 0 0 0.296985,0.707107 1,1 0 0 0 0.205061,0.205061 10.19,10.19 0 0 0 13.838079,-13.7108 26,26 0 0 0 8.944901,-5.932626 26.62,26.62 0 0 0 5.084098,-7.092281 9.61,9.61 0 0 1 3.903229,2.347594 10,10 0 0 1 2.121321,10.762165 1,1 0 0 0 0.205061,1.053589 v 0 a 1,1 0 0 0 1.074802,0.226275 12.52,12.52 0 0 0 4.242641,-2.828427 12.19,12.19 0 0 0 0.339411,-17.196837 z M 53.396322,16.165731 a 1,1 0 1 1 -1.414213,0 1,1 0 0 1 1.414213,0 z m 0,-5.656854 c 0.707107,0.707107 0.806102,2.022325 0.318198,3.556747 a 3,3 0 0 0 -3.146625,4.928534 15,15 0 0 1 -1.244508,1.103087 11.85,11.85 0 0 0 -5.515433,-5.515433 15,15 0 0 1 1.103087,-1.244508 3,3 0 0 0 4.928534,-3.146625 c 1.534422,-0.4879034 2.84964,-0.3889084 3.556747,0.318198 z m -5.656854,0 a 1,1 0 1 1 -1.414214,0 1,1 0 0 1 1.414214,0 z m -2.12132,7.778174 a 11.48,11.48 0 0 1 3.217335,7.672109 l -9.256027,1.845549 -3.478966,-3.478966 1.845549,-9.256028 a 11.48,11.48 0 0 1 7.672109,3.217336 z m -7.155921,11.228856 -2.12132,6.363961 -6.363961,2.12132 -4.072935,-4.072935 2.12132,-6.363961 6.363961,-2.12132 z M 35.9025,15.105071 34.262013,23.364078 27.502072,25.62682 22.990731,21.115478 A 21.92,21.92 0 0 1 35.9025,15.105071 Z M 27.02831,10.006832 A 11.92,11.92 0 0 0 16.42878,6.7753535 10.38,10.38 0 0 1 32.183119,4.8520231 9.87,9.87 0 0 1 34.90548,13.231238 21.1,21.1 0 0 0 29.800169,14.532314 11.68,11.68 0 0 0 27.02831,10.006832 Z M 3.0786037,39.79724 C 2.8381874,40.037656 2.597771,40.278072 2.4068522,40.539702 A 8.19,8.19 0 0 1 14.371099,31.220034 19.39,19.39 0 0 0 13.58621,37.35065 10.26,10.26 0 0 0 3.0503194,39.825524 Z m 18.4979133,-17.267548 4.483057,4.483057 -2.2486,6.745799 -8.259007,1.640487 a 21.92,21.92 0 0 1 6.02455,-12.869343 z m -5.82656,25.62555 c 0.388909,-0.841457 0.763675,-1.612204 1.067731,-2.170818 0.183848,0.183848 0.367696,0.367695 0.551544,0.551543 0.183847,0.183848 0.367695,0.367696 0.551543,0.551544 -0.558614,0.304055 -1.32229,0.671751 -2.170818,1.067731 z M 18.74809,45.157109 A 11.48,11.48 0 0 1 15.530754,37.485 l 9.256028,-1.845548 3.478965,3.478965 -1.845548,9.256028 A 11.48,11.48 0 0 1 18.74809,45.157109 Z m 12.586501,14.283557 a 8.25,8.25 0 0 1 -8.004449,2.093036 c 0.233345,-0.233345 0.473761,-0.473761 0.707107,-0.707107 a 10.26,10.26 0 0 0 2.439518,-10.500535 19.39,19.39 0 0 0 6.208398,-0.721249 8.2,8.2 0 0 1 -1.350574,9.835855 z m -2.870854,-11.101576 1.640488,-8.259008 6.759941,-2.262741 4.511341,4.511341 a 21.92,21.92 0 0 1 -12.91177,6.010408 z m 9.814642,-11.935963 2.2486,-6.745799 8.259007,-1.640487 A 21.92,21.92 0 0 1 42.78972,40.914468 Z m 18.851467,11.073292 a 11.92,11.92 0 0 0 -3.231478,-10.59953 11.68,11.68 0 0 0 -4.50427,-2.793072 21.1,21.1 0 0 0 1.279863,-5.084098 9.87,9.87 0 0 1 8.379215,2.722361 10.38,10.38 0 0 1 -1.92333,15.754339 z"
     id="path1" />
</svg>
